<svg xmlns="http://www.w3.org/2000/svg" width="55.999" height="40.129" viewBox="0 0 55.999 40.129">
  <path id="Path_71" data-name="Path 71" d="M6.676,125.5a.979.979,0,0,0-.48,1.282l2.2,4.727a.977.977,0,0,0,1.292.48l16.637-7.771L24.82,139.973a.979.979,0,0,0,.322.822,4.272,4.272,0,0,0,2.584.979,3.147,3.147,0,0,0,.773-.1c1.351-.352,2.4-1.556,3.112-3.612l6.547-19.387,12.967-6.049c3.817-1.781,5.784-5.392,4.463-8.211a4.955,4.955,0,0,0-3.827-2.672,9.072,9.072,0,0,0-5.343.823l-14.964,7.017-16.089-6.293c-2.026-.763-3.631-.743-4.756.069a3.991,3.991,0,0,0-1.458,3.161.98.98,0,0,0,.421.774l10.834,7.447-6.2,2.936L3.8,115.037a.979.979,0,0,0-1.086.47L.119,120.175a.979.979,0,0,0,.509,1.38l7.7,3.181Zm4.482-19.465a1.674,1.674,0,0,1,.588-1.057c.558-.4,1.576-.343,2.936.166l14.328,5.588-6.538,3.053ZM2.35,120.165l1.7-3.024,10.012,2.486a.98.98,0,0,0,.646-.058l32.54-15.2a7.153,7.153,0,0,1,4.179-.666,3.065,3.065,0,0,1,2.388,1.546c.821,1.762-.793,4.336-3.524,5.608L39.02,116.143l.685-2.026a.995.995,0,1,0-1.889-.626l-8.054,23.967c-.48,1.361-1.077,2.173-1.742,2.349a1.657,1.657,0,0,1-1.194-.225l1.957-20.552a.983.983,0,0,0-1.957-.186l-.3,3.141L9.729,129.815,8.35,126.879l2.759-1.292a.979.979,0,0,0,0-1.791Z" transform="translate(0 -101.645)" fill="#fda331"/>
</svg>
