<svg xmlns="http://www.w3.org/2000/svg" width="22" height="20" viewBox="0 0 22 20">
  <g id="Group_607" data-name="Group 607" transform="translate(0 -25)">
    <path id="Path_7" data-name="Path 7" d="M99.035,249H97.65a.654.654,0,0,0,0,1.309h1.386a.654.654,0,0,0,0-1.309Z" transform="translate(-92.837 -214.308)" fill="#fff"/>
    <path id="Path_8" data-name="Path 8" d="M99.035,313H97.65a.654.654,0,0,0,0,1.309h1.386a.654.654,0,0,0,0-1.309Z" transform="translate(-92.837 -275.539)" fill="#fff"/>
    <path id="Path_9" data-name="Path 9" d="M99.035,377H97.65a.654.654,0,0,0,0,1.309h1.386a.654.654,0,0,0,0-1.309Z" transform="translate(-92.837 -336.77)" fill="#fff"/>
    <path id="Path_10" data-name="Path 10" d="M227.035,249H225.65a.654.654,0,0,0,0,1.309h1.386a.654.654,0,0,0,0-1.309Z" transform="translate(-215.342 -214.308)" fill="#fff"/>
    <path id="Path_11" data-name="Path 11" d="M227.035,313H225.65a.654.654,0,0,0,0,1.309h1.386a.654.654,0,0,0,0-1.309Z" transform="translate(-215.342 -275.539)" fill="#fff"/>
    <path id="Path_12" data-name="Path 12" d="M227.035,377H225.65a.654.654,0,0,0,0,1.309h1.386a.654.654,0,0,0,0-1.309Z" transform="translate(-215.342 -336.77)" fill="#fff"/>
    <path id="Path_13" data-name="Path 13" d="M355.035,249H353.65a.654.654,0,0,0,0,1.309h1.386a.654.654,0,0,0,0-1.309Z" transform="translate(-337.848 -214.308)" fill="#fff"/>
    <path id="Path_14" data-name="Path 14" d="M355.035,313H353.65a.654.654,0,0,0,0,1.309h1.386a.654.654,0,0,0,0-1.309Z" transform="translate(-337.848 -275.539)" fill="#fff"/>
    <path id="Path_15" data-name="Path 15" d="M355.035,377H353.65a.654.654,0,0,0,0,1.309h1.386a.654.654,0,0,0,0-1.309Z" transform="translate(-337.848 -336.77)" fill="#fff"/>
    <path id="Path_16" data-name="Path 16" d="M20.066,26.732H18.52V25.649a.645.645,0,1,0-1.289,0v1.082H11.645V25.649a.645.645,0,1,0-1.289,0v1.082H4.77V25.649a.645.645,0,1,0-1.289,0v1.082H1.934A1.943,1.943,0,0,0,0,28.68V43.052A1.943,1.943,0,0,0,1.934,45H20.066A1.943,1.943,0,0,0,22,43.052V28.68A1.943,1.943,0,0,0,20.066,26.732ZM1.289,28.68a.648.648,0,0,1,.645-.649H3.48v1.082a.645.645,0,1,0,1.289,0V28.03h5.586v1.082a.645.645,0,1,0,1.289,0V28.03H17.23v1.082a.645.645,0,1,0,1.289,0V28.03h1.547a.648.648,0,0,1,.645.649v2.554H1.289ZM20.066,43.7H1.934a.648.648,0,0,1-.645-.649V32.532H20.711V43.052A.648.648,0,0,1,20.066,43.7Z" transform="translate(0 0)" fill="#fff"/>
  </g>
</svg>
