<svg xmlns="http://www.w3.org/2000/svg" width="26.889" height="24.263" viewBox="0 0 26.889 24.263">
  <g id="Group_39" data-name="Group 39" transform="translate(0 -25)">
    <path id="Path_7" data-name="Path 7" d="M99.468,249H97.788a.788.788,0,1,0,0,1.576h1.681a.788.788,0,1,0,0-1.576Z" transform="translate(-91.906 -212.236)" fill="#fda331"/>
    <path id="Path_8" data-name="Path 8" d="M99.468,313H97.788a.788.788,0,1,0,0,1.576h1.681a.788.788,0,1,0,0-1.576Z" transform="translate(-91.906 -272.875)" fill="#fda331"/>
    <path id="Path_9" data-name="Path 9" d="M99.468,377H97.788a.788.788,0,1,0,0,1.576h1.681a.788.788,0,1,0,0-1.576Z" transform="translate(-91.906 -333.514)" fill="#fda331"/>
    <path id="Path_10" data-name="Path 10" d="M227.468,249h-1.681a.788.788,0,1,0,0,1.576h1.681a.788.788,0,1,0,0-1.576Z" transform="translate(-213.184 -212.236)" fill="#fda331"/>
    <path id="Path_11" data-name="Path 11" d="M227.468,313h-1.681a.788.788,0,1,0,0,1.576h1.681a.788.788,0,1,0,0-1.576Z" transform="translate(-213.184 -272.875)" fill="#fda331"/>
    <path id="Path_12" data-name="Path 12" d="M227.468,377h-1.681a.788.788,0,1,0,0,1.576h1.681a.788.788,0,1,0,0-1.576Z" transform="translate(-213.184 -333.514)" fill="#fda331"/>
    <path id="Path_13" data-name="Path 13" d="M355.468,249h-1.681a.788.788,0,0,0,0,1.576h1.681a.788.788,0,0,0,0-1.576Z" transform="translate(-334.461 -212.236)" fill="#fda331"/>
    <path id="Path_14" data-name="Path 14" d="M355.468,313h-1.681a.788.788,0,0,0,0,1.576h1.681a.788.788,0,0,0,0-1.576Z" transform="translate(-334.461 -272.875)" fill="#fda331"/>
    <path id="Path_15" data-name="Path 15" d="M355.468,377h-1.681a.788.788,0,0,0,0,1.576h1.681a.788.788,0,0,0,0-1.576Z" transform="translate(-334.461 -333.514)" fill="#fda331"/>
    <path id="Path_16" data-name="Path 16" d="M24.526,27.1H22.635V25.788a.788.788,0,1,0-1.576,0V27.1H14.232V25.788a.788.788,0,1,0-1.576,0V27.1H5.829V25.788a.788.788,0,1,0-1.576,0V27.1H2.363A2.366,2.366,0,0,0,0,29.464V46.9a2.366,2.366,0,0,0,2.363,2.363H24.526A2.366,2.366,0,0,0,26.889,46.9V29.464A2.366,2.366,0,0,0,24.526,27.1ZM1.576,29.464a.789.789,0,0,1,.788-.788H4.254v1.313a.788.788,0,0,0,1.576,0V28.676h6.827v1.313a.788.788,0,0,0,1.576,0V28.676H21.06v1.313a.788.788,0,1,0,1.576,0V28.676h1.891a.789.789,0,0,1,.788.788v3.1H1.576Zm22.95,18.224H2.363a.789.789,0,0,1-.788-.788V34.138H25.314V46.9A.789.789,0,0,1,24.526,47.688Z" transform="translate(0 0)" fill="#fda331"/>
  </g>
</svg>
