<svg id="Group_750" data-name="Group 750" xmlns="http://www.w3.org/2000/svg" width="49.824" height="35.032" viewBox="0 0 49.824 35.032">
  <g id="Group_154" data-name="Group 154" transform="translate(34.274 2.503)">
    <g id="Group_153" data-name="Group 153" transform="translate(0 0)">
      <path id="Path_3878" data-name="Path 3878" d="M367.322,101.721l-15.111,15.013,15.111,15.013a4.328,4.328,0,0,0,.439-1.876V103.6A4.327,4.327,0,0,0,367.322,101.721Z" transform="translate(-352.211 -101.721)" fill="#fff"/>
    </g>
  </g>
  <g id="Group_156" data-name="Group 156" transform="translate(2.503 0)">
    <g id="Group_155" data-name="Group 155" transform="translate(0 0)">
      <path id="Path_3879" data-name="Path 3879" d="M68.663,76H27.6a4.329,4.329,0,0,0-1.876.439L45.034,95.654a4.383,4.383,0,0,0,6.192,0L70.539,76.439A4.329,4.329,0,0,0,68.663,76Z" transform="translate(-25.721 -76)" fill="#fff"/>
    </g>
  </g>
  <g id="Group_158" data-name="Group 158" transform="translate(0 2.503)">
    <g id="Group_157" data-name="Group 157" transform="translate(0 0)">
      <path id="Path_3880" data-name="Path 3880" d="M.439,101.721A4.328,4.328,0,0,0,0,103.6v26.274a4.328,4.328,0,0,0,.439,1.876l15.111-15.013Z" transform="translate(0 -101.721)" fill="#fff"/>
    </g>
  </g>
  <g id="Group_160" data-name="Group 160" transform="translate(2.503 19.58)">
    <g id="Group_159" data-name="Group 159">
      <path id="Path_3881" data-name="Path 3881" d="M55.428,277.211l-2.138,2.138a7.306,7.306,0,0,1-10.32,0l-2.138-2.138L25.721,292.224a4.329,4.329,0,0,0,1.876.439H68.663a4.329,4.329,0,0,0,1.876-.439Z" transform="translate(-25.721 -277.211)" fill="#fff"/>
    </g>
  </g>
</svg>
