<svg xmlns="http://www.w3.org/2000/svg" width="47.055" height="45.039" viewBox="0 0 47.055 45.039">
  <g id="Group_59" data-name="Group 59" transform="translate(-13.838 -24.216)">
    <path id="Path_54" data-name="Path 54" d="M143.839,100.489H118.294a.672.672,0,0,1-.672-.672V59.483a.672.672,0,0,1,.672-.672h25.544a.672.672,0,0,1,.672.672V99.816A.672.672,0,0,1,143.839,100.489Zm-24.872-1.344h24.2V60.155h-24.2Z" transform="translate(-93.701 -31.234)" fill="#fda331"/>
    <path id="Path_55" data-name="Path 55" d="M188.434,28.922H173.645a.672.672,0,0,1-.672-.672V24.888a.672.672,0,0,1,.672-.672h14.789a.672.672,0,0,1,.672.672v3.361A.672.672,0,0,1,188.434,28.922Zm-14.117-1.344h13.444V25.56H174.317Z" transform="translate(-143.674)" fill="#fda331"/>
    <path id="Path_56" data-name="Path 56" d="M391.3,175.449H381.213a.672.672,0,0,1-.672-.672V142.51a.672.672,0,0,1,.672-.672H391.3a.672.672,0,0,1,.672.672v32.267A.672.672,0,0,1,391.3,175.449Zm-9.411-1.344h8.739V143.182h-8.739Z" transform="translate(-331.075 -106.194)" fill="#fda331"/>
    <path id="Path_57" data-name="Path 57" d="M24.594,175.449H14.51a.672.672,0,0,1-.672-.672V142.51a.672.672,0,0,1,.672-.672H24.594a.672.672,0,0,1,.672.672v32.267A.672.672,0,0,1,24.594,175.449ZM15.182,174.1h8.739V143.182H15.182Z" transform="translate(0 -106.194)" fill="#fda331"/>
    <path id="Path_58" data-name="Path 58" d="M287.877,112.789H285.02a1.344,1.344,0,0,1-1.344-1.344v-2.857a1.344,1.344,0,0,1,1.344-1.344h2.857a1.345,1.345,0,0,1,1.344,1.344v2.857A1.344,1.344,0,0,1,287.877,112.789Zm-2.857-4.2v2.857h2.857v-2.857Z" transform="translate(-243.621 -74.96)" fill="#fda331"/>
    <path id="Path_59" data-name="Path 59" d="M175.444,112.789h-2.857a1.344,1.344,0,0,1-1.344-1.344v-2.857a1.345,1.345,0,0,1,1.344-1.344h2.857a1.344,1.344,0,0,1,1.344,1.344v2.857A1.344,1.344,0,0,1,175.444,112.789Zm0-4.2h-2.857v2.857h2.857Z" transform="translate(-142.112 -74.96)" fill="#fda331"/>
    <path id="Path_60" data-name="Path 60" d="M287.877,198.411H285.02a1.344,1.344,0,0,1-1.344-1.344v-2.857a1.344,1.344,0,0,1,1.344-1.344h2.857a1.344,1.344,0,0,1,1.344,1.344v2.857A1.344,1.344,0,0,1,287.877,198.411Zm-2.857-4.2v2.857h2.857v-2.857Z" transform="translate(-243.621 -152.264)" fill="#fda331"/>
    <path id="Path_61" data-name="Path 61" d="M175.444,198.411h-2.857a1.344,1.344,0,0,1-1.344-1.344v-2.857a1.344,1.344,0,0,1,1.344-1.344h2.857a1.344,1.344,0,0,1,1.344,1.344v2.857A1.344,1.344,0,0,1,175.444,198.411Zm0-4.2h-2.857v2.857h2.857Z" transform="translate(-142.112 -152.264)" fill="#fda331"/>
    <path id="Path_62" data-name="Path 62" d="M287.877,284.032H285.02a1.344,1.344,0,0,1-1.344-1.344V279.83a1.344,1.344,0,0,1,1.344-1.344h2.857a1.345,1.345,0,0,1,1.344,1.344v2.857A1.345,1.345,0,0,1,287.877,284.032Zm-2.857-4.2v2.857h2.857V279.83Z" transform="translate(-243.621 -229.566)" fill="#fda331"/>
    <path id="Path_63" data-name="Path 63" d="M175.444,284.032h-2.857a1.345,1.345,0,0,1-1.344-1.344V279.83a1.345,1.345,0,0,1,1.344-1.344h2.857a1.344,1.344,0,0,1,1.344,1.344v2.857A1.344,1.344,0,0,1,175.444,284.032Zm0-4.2h-2.857v2.858h2.857Z" transform="translate(-142.112 -229.566)" fill="#fda331"/>
    <path id="Path_64" data-name="Path 64" d="M215.147,375.343H206.8a.672.672,0,0,1-.672-.672V363.915a.672.672,0,0,1,.672-.672h8.346a.672.672,0,0,1,.672.672v10.756A.672.672,0,0,1,215.147,375.343ZM207.472,374h7v-9.411h-7Z" transform="translate(-173.608 -306.088)" fill="#fda331"/>
    <path id="Path_65" data-name="Path 65" d="M418.15,208.033h-2.1a1.345,1.345,0,0,1-1.344-1.344v-2.1a1.345,1.345,0,0,1,1.344-1.344h2.1a1.345,1.345,0,0,1,1.344,1.344v2.1A1.345,1.345,0,0,1,418.15,208.033Zm-2.1-3.445v2.1h2.1v-2.1Z" transform="translate(-361.921 -161.633)" fill="#fda331"/>
    <path id="Path_66" data-name="Path 66" d="M418.15,294.955h-2.1a1.344,1.344,0,0,1-1.344-1.344v-2.1a1.344,1.344,0,0,1,1.344-1.344h2.1a1.344,1.344,0,0,1,1.344,1.344v2.1A1.344,1.344,0,0,1,418.15,294.955Zm-2.1-3.445v2.1h2.1v-2.1Z" transform="translate(-361.921 -240.111)" fill="#fda331"/>
    <path id="Path_67" data-name="Path 67" d="M418.15,381.871h-2.1a1.344,1.344,0,0,1-1.344-1.344v-2.1a1.345,1.345,0,0,1,1.344-1.344h2.1a1.345,1.345,0,0,1,1.344,1.344v2.1A1.344,1.344,0,0,1,418.15,381.871Zm-2.1-3.445v2.1h2.1v-2.1Z" transform="translate(-361.921 -318.582)" fill="#fda331"/>
    <path id="Path_68" data-name="Path 68" d="M51.447,208.033h-2.1A1.345,1.345,0,0,1,48,206.688v-2.1a1.345,1.345,0,0,1,1.344-1.344h2.1a1.345,1.345,0,0,1,1.344,1.344v2.1A1.345,1.345,0,0,1,51.447,208.033Zm-2.1-3.445v2.1h2.1v-2.1Z" transform="translate(-30.846 -161.633)" fill="#fda331"/>
    <path id="Path_69" data-name="Path 69" d="M51.447,294.955h-2.1A1.344,1.344,0,0,1,48,293.61v-2.1a1.344,1.344,0,0,1,1.344-1.344h2.1a1.344,1.344,0,0,1,1.344,1.344v2.1A1.344,1.344,0,0,1,51.447,294.955Zm-2.1-3.445v2.1h2.1v-2.1Z" transform="translate(-30.846 -240.111)" fill="#fda331"/>
    <path id="Path_70" data-name="Path 70" d="M51.447,381.871h-2.1A1.344,1.344,0,0,1,48,380.526v-2.1a1.345,1.345,0,0,1,1.344-1.344h2.1a1.345,1.345,0,0,1,1.344,1.344v2.1A1.344,1.344,0,0,1,51.447,381.871Zm-2.1-3.445v2.1h2.1v-2.1Z" transform="translate(-30.846 -318.582)" fill="#fda331"/>
  </g>
</svg>
