<svg xmlns="http://www.w3.org/2000/svg" width="15.797" height="15.797" viewBox="0 0 15.797 15.797">
  <path id="Path_1" data-name="Path 1" d="M10.618,9.735,6.692,5.871a6.474,6.474,0,0,0-.306-8.95A6.677,6.677,0,0,0,1.673-5,6.677,6.677,0,0,0-3.041-3.079,6.469,6.469,0,0,0-4.994,1.563,6.469,6.469,0,0,0-3.041,6.2,6.677,6.677,0,0,0,1.673,8.125a6.727,6.727,0,0,0,2.264-.389A6.685,6.685,0,0,0,5.779,6.73l3.949,3.886a.636.636,0,0,0,.889,0,.617.617,0,0,0,0-.882ZM7.079,1.563A5.369,5.369,0,0,1,1.673,6.881,5.369,5.369,0,0,1-3.734,1.563,5.369,5.369,0,0,1,1.673-3.756,5.369,5.369,0,0,1,7.079,1.563Z" transform="translate(4.994 5)" fill="#fff"/>
</svg>
