<svg xmlns="http://www.w3.org/2000/svg" width="27.263" height="24.376" viewBox="0 0 27.263 24.376">
  <g id="Group_6" data-name="Group 6" transform="translate(-680.119 -38.45)">
    <path id="Path_4" data-name="Path 4" d="M707.375,62.263l-1.588-8.756a.477.477,0,1,0-.939.171l1.317,7.265.136.65-.763-.381-4.757-2.136-.307-3.963-.514-6.64,4.386,2.441.217,1.2a.477.477,0,0,0,.939-.17l-.258-1.42a.473.473,0,0,0-.237-.331l-5.319-2.961-.041-.023-.01-.005-.008,0h0l-.035-.015-.024-.008-.038-.012-.026-.005-.032-.005-.022,0,0,.079,0-.08a.509.509,0,0,0-.058,0l-.037,0-.015,0-.011,0-.036.009-.024.007-.022.008-.018.007-.013.006-.015.007-.685.357a7.686,7.686,0,0,0,.91-3.463,5.644,5.644,0,1,0-11.289,0,7.711,7.711,0,0,0,.928,3.5l-.755-.394-.01,0-.016-.007-.01,0-.035-.013-.023-.007-.038-.009-.028,0-.03,0a.446.446,0,0,0-.061,0h-.005l-.019,0-.033.006-.03.006-.037.012-.02.007-.037.017-.012.006,0,0-.043.022v0l-5.319,2.961a.474.474,0,0,0-.238.332l-1.51,8.324a.477.477,0,1,0,.939.17l1.469-8.1,4.386-2.441-.821,10.6-5.492,2.466.173-.953a.477.477,0,0,0-.939-.17l-.334,1.844a.476.476,0,0,0,.175.461.486.486,0,0,0,.49.06l6.382-2.865,6.379,2.864.016.007h0l.019.007.026.008h.005l.015,0,.041.008.012,0h.012l.042,0h.014l.053,0,.014,0,.008,0,.047-.01.025,0,0,0,.039-.015,6.382-2.866,6.383,2.867.021.008.022.008.029.008.021.005.03.005.019,0a.521.521,0,0,0,.12,0l.01,0,.008,0a.425.425,0,0,0,.067-.017l.007,0a.341.341,0,0,0,.039-.016l.018-.01.03-.017.036-.024.013-.009.026-.023.015-.013a.466.466,0,0,0,.037-.042l.011-.014a.441.441,0,0,0,.036-.058.213.213,0,0,0,.01-.021.4.4,0,0,0,.02-.048l.007-.024c0-.013.007-.027.011-.046v-.005c0-.006,0-.013,0-.019a.446.446,0,0,0,0-.05v-.022A.5.5,0,0,0,707.375,62.263ZM694.23,52.687a18.661,18.661,0,0,0,1.423-1.306l1.284-1.435c.223-.277.43-.55.615-.812L699,48.381l.83,10.717-5.6,2.513Zm4.237-8.592a8.322,8.322,0,0,1-1.992,4.887,19.039,19.039,0,0,1-2.7,2.838,19.013,19.013,0,0,1-2.7-2.838,8.321,8.321,0,0,1-1.992-4.887,4.69,4.69,0,1,1,9.38,0Zm-5.193,8.551v8.965l-5.6-2.513.83-10.717,1.526.8c.246.344.513.69.8,1.027.239.285.493.571.758.852l.949.941C692.846,52.285,693.1,52.506,693.274,52.646Z" transform="translate(0)" fill="#fda331"/>
    <path id="Path_5" data-name="Path 5" d="M891.281,95.63a.557.557,0,1,0,0,1.113,1.5,1.5,0,1,1-1.073.45.557.557,0,0,0-.4-.947h0a.553.553,0,0,0-.392.167,2.618,2.618,0,1,0,1.867-.783Z" transform="translate(-197.504 -54.153)" fill="#fda331"/>
  </g>
</svg>
