<svg xmlns="http://www.w3.org/2000/svg" width="18" height="20" viewBox="0 0 18 20">
  <g id="Group_608" data-name="Group 608" transform="translate(-24.165 -3)">
    <path id="Path_72" data-name="Path 72" d="M116,13.484a5.242,5.242,0,1,0-5.206-5.242A5.238,5.238,0,0,0,116,13.484Zm-2.939-8.2a4.122,4.122,0,0,1,5.877,0,4.192,4.192,0,0,1,0,5.918,4.122,4.122,0,0,1-5.877,0,4.192,4.192,0,0,1,0-5.918Z" transform="translate(-82.831 0)" fill="#fff"/>
    <path id="Path_73" data-name="Path 73" d="M42.126,251.655a4.892,4.892,0,0,0-.524-.961,6.487,6.487,0,0,0-4.491-2.839,1.123,1.123,0,0,0-.112-.006.918.918,0,0,0-.549.166,5.547,5.547,0,0,1-6.566,0,.876.876,0,0,0-.516-.174.738.738,0,0,0-.145.014,6.44,6.44,0,0,0-4.491,2.839,5.642,5.642,0,0,0-.524.961.489.489,0,0,0,.023.435,9.135,9.135,0,0,0,.616.916,8.688,8.688,0,0,0,1.049,1.19,13.679,13.679,0,0,0,1.049.916,10.363,10.363,0,0,0,12.4,0,10.035,10.035,0,0,0,1.049-.916,10.555,10.555,0,0,0,1.049-1.19,8.03,8.03,0,0,0,.616-.916A.392.392,0,0,0,42.126,251.655Zm-1.514.71-.007.009-.006.009a9.612,9.612,0,0,1-.946,1.071,8.919,8.919,0,0,1-.935.817,9.32,9.32,0,0,1-11.133.012,12.567,12.567,0,0,1-.952-.829l-.011-.011-.012-.011a7.658,7.658,0,0,1-.923-1.048l0,0,0,0c-.111-.149-.258-.35-.395-.562a4.348,4.348,0,0,1,.3-.521l.006-.009.006-.009a5.39,5.39,0,0,1,3.715-2.371,6.592,6.592,0,0,0,7.7,0,5.29,5.29,0,0,1,2.074.771,5.573,5.573,0,0,1,1.646,1.608l0,0,0,0a4.267,4.267,0,0,1,.287.478C40.91,251.959,40.775,252.152,40.612,252.365Z" transform="translate(0 -234.172)" fill="#fff"/>
  </g>
</svg>
