<svg xmlns="http://www.w3.org/2000/svg" width="16.116" height="28.229" viewBox="0 0 16.116 28.229">
  <path id="Path_6729" data-name="Path 6729" d="M151.129,47.675v1.2h-4.662v-1.2ZM149.174,50.3h-2.707v1.2h2.707Zm-2.707,3.825h4.662v-1.2h-4.662Zm2.707,1.42h-2.707v1.2h2.707Zm-2.707,3.825h4.662v-1.2h-4.662Zm.727,6.855a6.09,6.09,0,1,1-9.173-5.248V47.166a3.083,3.083,0,1,1,6.166,0V60.973a6.059,6.059,0,0,1,3.008,5.248Zm-1.2,0a4.865,4.865,0,0,0-2.679-4.355l-.329-.167V47.166a1.88,1.88,0,1,0-3.76,0V61.7l-.329.167a4.886,4.886,0,1,0,7.1,4.355Zm-1,0a3.885,3.885,0,1,1-4.885-3.749l.223-.06V49.041h1.554V62.412l.223.06a3.885,3.885,0,0,1,2.885,3.749Zm-3.693-2.59a.777.777,0,0,0-.928-.586,3.194,3.194,0,0,0-2.5,3.132.776.776,0,1,0,1.552,0,1.67,1.67,0,0,1,1.291-1.618.78.78,0,0,0,.586-.928Z" transform="translate(-135.013 -44.083)" fill="#fff"/>
</svg>
