<svg xmlns="http://www.w3.org/2000/svg" width="43.44" height="45.996" viewBox="0 0 43.44 45.996">
  <g id="Group_58" data-name="Group 58" transform="translate(-26.274 -13.027)">
    <path id="Path_31" data-name="Path 31" d="M238.748,42.205a.634.634,0,0,0,.465.164,20.757,20.757,0,0,1,2.915.069l.062,0a.649.649,0,0,0,.06-1.3,22.051,22.051,0,0,0-3.1-.073.651.651,0,0,0-.4,1.133Z" transform="translate(-192.19 -25.372)" fill="#fda331"/>
    <path id="Path_32" data-name="Path 32" d="M166.943,49.481a.645.645,0,0,0,.241-.047,20.324,20.324,0,0,1,2.775-.886.649.649,0,1,0-.3-1.262,21.615,21.615,0,0,0-2.953.943.649.649,0,0,0,.242,1.252Z" transform="translate(-126.78 -31.003)" fill="#fda331"/>
    <path id="Path_33" data-name="Path 33" d="M106.612,77.543a.649.649,0,1,0-.69-1.1l-.013.008a21.881,21.881,0,0,0-2.479,1.858.649.649,0,1,0,.851.981h0A20.584,20.584,0,0,1,106.612,77.543Z" transform="translate(-69.658 -57.33)" fill="#fda331"/>
    <path id="Path_34" data-name="Path 34" d="M327.56,43.99h0a.672.672,0,1,0,.121.943.672.672,0,0,0-.121-.943Z" transform="translate(-271.82 -27.908)" fill="#fda331"/>
    <path id="Path_35" data-name="Path 35" d="M345.1,57.539h0a.672.672,0,1,0,.256.447.672.672,0,0,0-.256-.447Z" transform="translate(-287.697 -40.177)" fill="#fda331"/>
    <path id="Path_36" data-name="Path 36" d="M362.645,71.092h0a.672.672,0,1,0,.256.446.672.672,0,0,0-.256-.446Z" transform="translate(-303.587 -52.448)" fill="#fda331"/>
    <path id="Path_37" data-name="Path 37" d="M380.192,84.646h0a.672.672,0,1,0,.121.943.672.672,0,0,0-.121-.943Z" transform="translate(-319.474 -64.721)" fill="#fda331"/>
    <path id="Path_38" data-name="Path 38" d="M273.785,480.542a20.419,20.419,0,0,1-2.874.48.649.649,0,0,0,.06,1.3l.062,0a21.788,21.788,0,0,0,3.057-.511.649.649,0,1,0-.305-1.262Z" transform="translate(-220.974 -423.295)" fill="#fda331"/>
    <path id="Path_39" data-name="Path 39" d="M200.258,481.029a20.435,20.435,0,0,1-2.874-.48.649.649,0,1,0-.305,1.262h0a21.761,21.761,0,0,0,3.057.511l.061,0a.649.649,0,0,0,.06-1.3Z" transform="translate(-154.205 -423.302)" fill="#fda331"/>
    <path id="Path_40" data-name="Path 40" d="M431.456,134.658a.649.649,0,0,0-.636,1.017,20.5,20.5,0,0,1,1.518,2.486.649.649,0,0,0,1.167-.57l-.013-.026a21.791,21.791,0,0,0-1.614-2.644A.645.645,0,0,0,431.456,134.658Z" transform="translate(-366.187 -110.122)" fill="#fda331"/>
    <path id="Path_41" data-name="Path 41" d="M344.659,451.553a20.406,20.406,0,0,1-2.555,1.4.649.649,0,1,0,.54,1.181h0a21.735,21.735,0,0,0,2.718-1.487.649.649,0,0,0-.7-1.092Z" transform="translate(-285.625 -396.973)" fill="#fda331"/>
    <path id="Path_42" data-name="Path 42" d="M406,401.816a.649.649,0,0,0-.912.108h0a20.593,20.593,0,0,1-1.961,2.156.649.649,0,0,0,.9.94,21.894,21.894,0,0,0,2.085-2.293A.65.65,0,0,0,406,401.816Z" transform="translate(-341.04 -351.903)" fill="#fda331"/>
    <path id="Path_43" data-name="Path 43" d="M463.665,204.791a.652.652,0,0,0,.642.558.683.683,0,0,0,.092-.007.65.65,0,0,0,.551-.734,21.678,21.678,0,0,0-.656-3.03.649.649,0,1,0-1.246.365h0A20.384,20.384,0,0,1,463.665,204.791Z" transform="translate(-395.454 -170.301)" fill="#fda331"/>
    <path id="Path_44" data-name="Path 44" d="M449.219,336.837a.65.65,0,0,0-.826.4,20.345,20.345,0,0,1-1.149,2.679.649.649,0,1,0,1.137.628l.017-.032a21.668,21.668,0,0,0,1.222-2.851.649.649,0,0,0-.4-.826h0Z" transform="translate(-381.095 -293.161)" fill="#fda331"/>
    <path id="Path_45" data-name="Path 45" d="M30.789,195.178a.649.649,0,0,0,.76-.515h0a20.361,20.361,0,0,1,.752-2.815.649.649,0,1,0-1.227-.425h0a21.645,21.645,0,0,0-.8,2.995.649.649,0,0,0,.516.76Z" transform="translate(-3.61 -161.133)" fill="#fda331"/>
    <path id="Path_46" data-name="Path 46" d="M132.186,452.9a20.469,20.469,0,0,1-2.557-1.4.649.649,0,1,0-.7,1.092,21.755,21.755,0,0,0,2.72,1.488.642.642,0,0,0,.27.059.649.649,0,0,0,.27-1.24Z" transform="translate(-92.676 -396.924)" fill="#fda331"/>
    <path id="Path_47" data-name="Path 47" d="M27.778,267.378a20.676,20.676,0,0,1-.205-2.908.649.649,0,0,0-1.3-.015c0,.005,0,.01,0,.016a21.983,21.983,0,0,0,.218,3.09.652.652,0,0,0,.642.558.688.688,0,0,0,.092-.007A.65.65,0,0,0,27.778,267.378Z" transform="translate(0 -227.075)" fill="#fda331"/>
    <path id="Path_48" data-name="Path 48" d="M470.612,263.9a.65.65,0,0,0-.649.649,20.7,20.7,0,0,1-.205,2.907.649.649,0,0,0,.551.734.681.681,0,0,0,.092.007.652.652,0,0,0,.642-.558,21.991,21.991,0,0,0,.218-3.091A.65.65,0,0,0,470.612,263.9Z" transform="translate(-401.546 -227.153)" fill="#fda331"/>
    <path id="Path_49" data-name="Path 49" d="M39.731,337.232a.649.649,0,1,0-1.227.425,21.667,21.667,0,0,0,1.221,2.849.649.649,0,0,0,1.167-.57l-.013-.026A20.373,20.373,0,0,1,39.731,337.232Z" transform="translate(-11.041 -293.156)" fill="#fda331"/>
    <path id="Path_50" data-name="Path 50" d="M75.1,401.906a.649.649,0,0,0-1.02.8h0A21.913,21.913,0,0,0,76.16,405a.649.649,0,0,0,.9-.94A20.6,20.6,0,0,1,75.1,401.906Z" transform="translate(-43.155 -351.887)" fill="#fda331"/>
    <path id="Path_51" data-name="Path 51" d="M58.842,126.27a.65.65,0,0,0-.912.108,21.853,21.853,0,0,0-1.74,2.566.649.649,0,1,0,1.124.65,20.5,20.5,0,0,1,1.636-2.412A.65.65,0,0,0,58.842,126.27Z" transform="translate(-27.009 -102.41)" fill="#fda331"/>
    <path id="Path_52" data-name="Path 52" d="M301.387,27.221a.966.966,0,0,0,1.019-.343.566.566,0,0,0,.091-.173l.943-2.935,2.607-1.661a.565.565,0,0,0,.144-.132.968.968,0,0,0-.8-1.559l-3.031-.405-1.517-1.171,2.083-2.7a.916.916,0,0,0-.165-1.286h0l-.652-.5a1.27,1.27,0,0,0-1.6.047l-2.544,2.212-4.023-3.107a2.314,2.314,0,0,0-2.829,3.663l4.023,3.107-1.5,3.021a1.269,1.269,0,0,0,.36,1.564l.652.5a.91.91,0,0,0,.558.191.922.922,0,0,0,.119-.008.911.911,0,0,0,.609-.349l2.083-2.7,1.517,1.171L300.7,26.5A.965.965,0,0,0,301.387,27.221Zm-.863-4.118a.567.567,0,0,0-.178-.233l-2.915-2.251a.567.567,0,0,0-.694.9l.38.294-1.95,2.524-.48-.371a.132.132,0,0,1-.038-.162l1.7-3.438a.567.567,0,0,0-.161-.7L291.8,16.272a1.179,1.179,0,1,1,1.442-1.867l4.391,3.391a.567.567,0,0,0,.719-.021l2.9-2.517a.132.132,0,0,1,.167,0l.48.371-1.95,2.524-.38-.294a.567.567,0,0,0-.694.9h0L301.788,21a.567.567,0,0,0,.272.113l2.838.379-2.24,1.427a.568.568,0,0,0-.235.3l-.809,2.52Z" transform="translate(-238.984)" fill="#fda331"/>
    <path id="Path_53" data-name="Path 53" d="M125.651,126.809a13.611,13.611,0,1,0,13.611,13.611A13.627,13.627,0,0,0,125.651,126.809ZM113.175,140.42a12.491,12.491,0,0,1,12-12.466l.581,3.531a.836.836,0,0,1-.366.834l-2.191,1.435a1.963,1.963,0,0,0-.855,2.017l.295,1.542a1.977,1.977,0,0,0,1.08,1.405l1.539.741a.837.837,0,0,1,.46.9l-.561,3.115a.835.835,0,0,1-1.579.2l-.564-1.214a1.976,1.976,0,0,0-1.786-1.14h-2.281a1.96,1.96,0,0,0-1.132.357l-1.534,1.077a.833.833,0,0,1-.673.129l-2.279-.541A12.516,12.516,0,0,1,113.175,140.42Zm18.874,6.792.4,3.665a12.47,12.47,0,0,1-18.87-7.3l1.762.418a1.971,1.971,0,0,0,1.587-.3l1.534-1.077a.831.831,0,0,1,.48-.151h2.281a.838.838,0,0,1,.757.483l.564,1.214a1.953,1.953,0,0,0,1.582,1.129,2.038,2.038,0,0,0,.209.011,1.952,1.952,0,0,0,1.572-.79,1.978,1.978,0,0,0,.361-.831l.561-3.115a1.975,1.975,0,0,0-1.084-2.124l-1.539-.741a.838.838,0,0,1-.458-.6l-.295-1.542a.832.832,0,0,1,.363-.855l2.191-1.435a1.971,1.971,0,0,0,.864-1.967l-.549-3.339a12.461,12.461,0,0,1,8.939,4.51l-.964.687a2.877,2.877,0,0,0-1.117,1.628l-.306,1.2a2.873,2.873,0,0,0,1.014,2.976,1.746,1.746,0,0,1,.626,1.75l-.619,2.761a1.735,1.735,0,0,1-.473.855l-.54.534a2.858,2.858,0,0,0-.834,2.354Zm6.079-6.792a12.458,12.458,0,0,1-4.622,9.686l-.329-3.018a1.729,1.729,0,0,1,.5-1.424l.54-.534a2.868,2.868,0,0,0,.782-1.413l.619-2.761a2.886,2.886,0,0,0-1.034-2.892,1.738,1.738,0,0,1-.614-1.8l.306-1.2a1.739,1.739,0,0,1,.676-.985l.99-.7a12.406,12.406,0,0,1,2.183,7.042Z" transform="translate(-77.657 -103.024)" fill="#fda331"/>
  </g>
</svg>
