<svg xmlns="http://www.w3.org/2000/svg" width="21.636" height="24.014" viewBox="0 0 21.636 24.014">
  <g id="Group_63" data-name="Group 63" transform="translate(-24.165 -3)">
    <path id="Path_72" data-name="Path 72" d="M117.067,15.552a6.276,6.276,0,1,0-6.276-6.276A6.292,6.292,0,0,0,117.067,15.552Zm-3.543-9.818a4.994,4.994,0,1,1-1.474,3.543A4.981,4.981,0,0,1,113.524,5.733Z" transform="translate(-82.082 0)" fill="#fda331"/>
    <path id="Path_73" data-name="Path 73" d="M45.755,252.407a5.85,5.85,0,0,0-.63-1.151,7.8,7.8,0,0,0-5.4-3.4c-.044,0-.09-.007-.135-.007a1.107,1.107,0,0,0-.66.2,6.69,6.69,0,0,1-7.893,0,1.055,1.055,0,0,0-.621-.209.891.891,0,0,0-.174.017,7.744,7.744,0,0,0-5.4,3.4,6.746,6.746,0,0,0-.63,1.151.583.583,0,0,0,.027.521,10.933,10.933,0,0,0,.74,1.1,10.415,10.415,0,0,0,1.261,1.425,16.422,16.422,0,0,0,1.261,1.1,12.5,12.5,0,0,0,14.908,0,12.047,12.047,0,0,0,1.261-1.1,12.655,12.655,0,0,0,1.261-1.425,9.61,9.61,0,0,0,.74-1.1A.468.468,0,0,0,45.755,252.407Zm-1.82.849-.008.01-.008.01a11.523,11.523,0,0,1-1.137,1.282,10.712,10.712,0,0,1-1.124.978,11.239,11.239,0,0,1-13.382.015,15.083,15.083,0,0,1-1.144-.993l-.014-.013-.014-.013A9.18,9.18,0,0,1,26,253.277l0,0,0,0c-.133-.178-.311-.419-.475-.673a5.2,5.2,0,0,1,.366-.623l.008-.011.007-.011a6.482,6.482,0,0,1,4.465-2.838,7.95,7.95,0,0,0,9.25,0,6.375,6.375,0,0,1,2.493.923,6.686,6.686,0,0,1,1.979,1.925l0,.006,0,.006a5.1,5.1,0,0,1,.346.572C44.293,252.771,44.131,253,43.935,253.257Z" transform="translate(0 -231.998)" fill="#fda331"/>
  </g>
</svg>
