<svg xmlns="http://www.w3.org/2000/svg" width="15" height="17.5" viewBox="0 0 15 17.5">
  <g id="Group_806" data-name="Group 806" transform="translate(1458.562 182.712)">
    <path id="Path_6838" data-name="Path 6838" d="M-1458.322-165.212a.982.982,0,0,1-.194-.184.333.333,0,0,1,.3-.5c.246-.009.493,0,.74,0h.185v-.217q0-3.818,0-7.637c0-.373.1-.475.482-.475h1.751v-.222q0-3.109,0-6.219c0-.379.1-.476.476-.477h.6c0-.385,0-.753,0-1.122,0-.337.114-.449.454-.449h5.194c.334,0,.445.11.445.439,0,.369,0,.738,0,1.132h.641c.319,0,.438.115.438.432q0,1.956,0,3.912v.236h2.061c.438,0,.527.087.527.517V-165.9c.254.025.559-.068.65.277.053.2-.077.316-.228.413Zm3.964-15.237V-165.9h1.7v-.208c0-.649,0-1.3,0-1.948,0-.316.12-.432.438-.433h2.546c.352,0,.467.112.467.458q0,.974,0,1.948v.178h1.7v-14.54Zm9.432,14.545v-9.965h-1.876v9.965Zm-11.666-7.629v7.626h1.518v-7.626Zm3.3-7.619h4.7v-.863h-4.7Zm1.326,15.246h2.056V-167.8h-2.056Z" transform="translate(0 0)" fill="#b7b7b7"/>
    <path id="Path_6839" data-name="Path 6839" d="M-1348.836,45.7c0,.292,0,.585,0,.877a.394.394,0,0,1-.429.439q-.887.01-1.775,0a.4.4,0,0,1-.429-.443q-.007-.877,0-1.755a.4.4,0,0,1,.433-.438q.887-.011,1.775,0a.391.391,0,0,1,.425.442C-1348.833,45.119-1348.836,45.411-1348.836,45.7Zm-1.823-.512v1.016h1.016V45.192Z" transform="translate(-102.308 -216.979)" fill="#b7b7b7"/>
    <path id="Path_6840" data-name="Path 6840" d="M-1280.832,45.718c0,.286,0,.572,0,.857a.4.4,0,0,1-.427.443q-.887.011-1.775,0a.4.4,0,0,1-.43-.439q0-.877,0-1.755a.392.392,0,0,1,.426-.442q.887-.012,1.774,0c.29,0,.43.162.432.458S-1280.831,45.426-1280.832,45.718Zm-.808-.527h-1.013v1.021h1.013Z" transform="translate(-167.276 -216.978)" fill="#b7b7b7"/>
    <path id="Path_6841" data-name="Path 6841" d="M-1280.832-106.388c0,.286,0,.572,0,.857s-.142.452-.433.456q-.887.01-1.775,0a.39.39,0,0,1-.425-.441q0-.877,0-1.755a.4.4,0,0,1,.431-.439q.887-.01,1.775,0a.4.4,0,0,1,.427.445C-1280.829-106.973-1280.832-106.68-1280.832-106.388Zm-1.825-.516v1.019h1.012V-106.9Z" transform="translate(-167.276 -71.657)" fill="#b7b7b7"/>
    <path id="Path_6842" data-name="Path 6842" d="M-1348.84-30.265c0,.292,0,.585,0,.877a.4.4,0,0,1-.447.439q-.868,0-1.735,0a.4.4,0,0,1-.45-.442q-.008-.877,0-1.755a.4.4,0,0,1,.453-.439q.867,0,1.735,0a.394.394,0,0,1,.445.441C-1348.836-30.85-1348.84-30.558-1348.84-30.265Zm-1.821-.511v1.015h1.014v-1.015Z" transform="translate(-102.304 -144.396)" fill="#b7b7b7"/>
    <path id="Path_6843" data-name="Path 6843" d="M-1283.461-30.273c0-.292,0-.585,0-.877a.4.4,0,0,1,.431-.436q.888-.006,1.775,0a.391.391,0,0,1,.425.422q.007.9,0,1.795a.389.389,0,0,1-.411.417q-.907.008-1.815,0a.389.389,0,0,1-.405-.422C-1283.465-29.675-1283.461-29.974-1283.461-30.273Zm1.82.519v-1.023h-1.007v1.023Z" transform="translate(-167.281 -144.392)" fill="#b7b7b7"/>
    <path id="Path_6844" data-name="Path 6844" d="M-1348.836-106.392c0,.292,0,.585,0,.877a.389.389,0,0,1-.428.438q-.887.01-1.775,0a.4.4,0,0,1-.43-.439q-.007-.877,0-1.755a.4.4,0,0,1,.432-.441q.887-.01,1.775,0a.4.4,0,0,1,.426.443C-1348.833-106.976-1348.836-106.684-1348.836-106.392Zm-1.826.506h1.013V-106.9h-1.013Z" transform="translate(-102.307 -71.656)" fill="#b7b7b7"/>
  </g>
</svg>
