<svg xmlns="http://www.w3.org/2000/svg" width="15" height="11.5" viewBox="0 0 15 11.5">
  <path id="Path_6845" data-name="Path 6845" d="M49.5,405.024v-9.139a.153.153,0,0,0,.018-.04A1.337,1.337,0,0,1,50.9,394.7c.581.01,1.162,0,1.743,0H63.1a1.324,1.324,0,0,1,1.4,1.363q.006,4.385,0,8.77a1.479,1.479,0,0,1-.137.609,1.29,1.29,0,0,1-1.268.755H50.915c-.034,0-.068,0-.1,0a1.33,1.33,0,0,1-1.037-.522A1.629,1.629,0,0,1,49.5,405.024ZM62.954,395.6H51.015l5.994,5.98Zm-4.2,5.482c-.032.04-.063.085-.1.123q-.631.637-1.263,1.271a.454.454,0,0,1-.735,0q-.656-.653-1.31-1.308c-.037-.037-.075-.072-.087-.083l-4.193,4.22H62.956Zm-8.376,3.579,4.215-4.241-4.215-4.207Zm9.072-4.223,4.154,4.18v-8.361Z" transform="translate(-49.499 -394.704)" fill="#b7b7b7"/>
</svg>
