<svg xmlns="http://www.w3.org/2000/svg" width="15" height="15" viewBox="0 0 15 15">
  <path id="Path_6846" data-name="Path 6846" d="M-706.5,259.215c-.211-.034-.423-.064-.634-.1a9.107,9.107,0,0,1-2.329-.823,15.056,15.056,0,0,1-3.369-2.222,15.418,15.418,0,0,1-4.554-6.479,5.562,5.562,0,0,1-.343-1.977,2.406,2.406,0,0,1,.695-1.7c.412-.417.812-.849,1.254-1.233a1.441,1.441,0,0,1,2.139.033c.694.653,1.363,1.333,2.016,2.026a1.358,1.358,0,0,1,.009,1.92c-.367.405-.765.782-1.155,1.165a.161.161,0,0,0-.039.223,8.637,8.637,0,0,0,1.562,2.147,10.729,10.729,0,0,0,2.071,1.742c.2.128.42.23.626.352a.136.136,0,0,0,.2-.028c.325-.331.655-.658.986-.984a1.694,1.694,0,0,1,.915-.521,1.413,1.413,0,0,1,1.272.423q.959.939,1.9,1.891a1.451,1.451,0,0,1,.106,2.173c-.435.5-.917.961-1.4,1.417a2.134,2.134,0,0,1-1.246.537.655.655,0,0,0-.1.027Zm.289-.755a1.616,1.616,0,0,0,1.2-.421q.66-.635,1.282-1.308a.685.685,0,0,0-.017-1.043c-.656-.671-1.323-1.331-1.995-1.986a.662.662,0,0,0-.92-.034,2.142,2.142,0,0,0-.2.177c-.365.361-.726.725-1.092,1.085a.623.623,0,0,1-.791.125c-.214-.108-.427-.217-.633-.34a11.431,11.431,0,0,1-2.57-2.143,8.842,8.842,0,0,1-1.616-2.321.666.666,0,0,1,.176-.9c.36-.345.718-.692,1.068-1.047a.729.729,0,0,0,0-1.192l-.01-.01c-.606-.6-1.21-1.209-1.82-1.809a1.177,1.177,0,0,0-.331-.237.733.733,0,0,0-.859.232c-.371.362-.746.72-1.1,1.1a2.2,2.2,0,0,0-.41.614,2.484,2.484,0,0,0-.051,1.5,9.5,9.5,0,0,0,1.068,2.74,15.8,15.8,0,0,0,3.237,4.041,14.505,14.505,0,0,0,4.39,2.745A5.839,5.839,0,0,0-706.215,258.46Z" transform="translate(717.733 -244.215)" fill="#b7b7b7"/>
</svg>
