<svg xmlns="http://www.w3.org/2000/svg" width="15" height="16.5" viewBox="0 0 15 16.5">
  <g id="Group_807" data-name="Group 807" transform="translate(-24.165 -3)">
    <path id="Path_72" data-name="Path 72" d="M115.193,11.561a4.354,4.354,0,0,0,4.4-4.281,4.4,4.4,0,0,0-8.8,0A4.354,4.354,0,0,0,115.193,11.561Zm-2.485-6.7a3.573,3.573,0,0,1,4.969,0,3.34,3.34,0,0,1,0,4.833,3.573,3.573,0,0,1-4.969,0,3.34,3.34,0,0,1,0-4.833Z" transform="translate(-83.527 0)" fill="#b7b7b7"/>
    <path id="Path_73" data-name="Path 73" d="M39.133,250.956a3.971,3.971,0,0,0-.437-.785,5.419,5.419,0,0,0-3.743-2.318c-.031,0-.062,0-.094,0a.776.776,0,0,0-.457.135,4.7,4.7,0,0,1-5.472,0,.74.74,0,0,0-.43-.142.628.628,0,0,0-.121.012,5.379,5.379,0,0,0-3.743,2.318,4.579,4.579,0,0,0-.437.785.392.392,0,0,0,.019.355,7.452,7.452,0,0,0,.513.748,7.142,7.142,0,0,0,.874.972,11.329,11.329,0,0,0,.874.748,8.779,8.779,0,0,0,10.336,0,8.313,8.313,0,0,0,.874-.748,8.677,8.677,0,0,0,.874-.972,6.55,6.55,0,0,0,.513-.748A.315.315,0,0,0,39.133,250.956Zm-1.262.579-.005.007-.005.007a7.9,7.9,0,0,1-.788.874,7.393,7.393,0,0,1-.779.667,7.895,7.895,0,0,1-9.277.01,10.413,10.413,0,0,1-.793-.677l-.009-.009-.01-.009a6.3,6.3,0,0,1-.769-.856l0,0,0,0c-.092-.121-.215-.286-.329-.459a3.534,3.534,0,0,1,.254-.425l.005-.007.005-.007a4.5,4.5,0,0,1,3.1-1.936,5.585,5.585,0,0,0,6.413,0,4.465,4.465,0,0,1,1.729.63,4.6,4.6,0,0,1,1.372,1.313l0,0,0,0a3.47,3.47,0,0,1,.24.39C38.119,251.2,38.007,251.361,37.871,251.535Z" transform="translate(0 -235.961)" fill="#b7b7b7"/>
  </g>
</svg>
