<svg xmlns="http://www.w3.org/2000/svg" width="48.133" height="34.094" viewBox="0 0 48.133 34.094">
  <g id="Group_655" data-name="Group 655" transform="translate(0 -74.667)">
    <g id="Group_638" data-name="Group 638" transform="translate(4.011 82.689)">
      <g id="Group_637" data-name="Group 637" transform="translate(0 0)">
        <path id="Path_6755" data-name="Path 6755" d="M47.68,160H43.669a1,1,0,0,0,0,2.006H47.68a1,1,0,0,0,0-2.006Z" transform="translate(-42.666 -160)" fill="#1b1464"/>
      </g>
    </g>
    <g id="Group_640" data-name="Group 640" transform="translate(7.018 74.667)">
      <g id="Group_639" data-name="Group 639" transform="translate(0 0)">
        <path id="Path_6756" data-name="Path 6756" d="M108.7,85.395c-.191-.6-4.017-8.708-5.449-9.578-1.49-.907-10.4-1.149-11.552-1.149s-10.062.243-11.552,1.149c-1.432.868-5.259,8.979-5.449,9.578A1,1,0,1,0,76.613,86c.315-1,3.792-7.784,4.557-8.457.848-.405,7.1-.87,10.531-.87s9.683.465,10.461.822c.832.722,4.312,7.509,4.627,8.506a1,1,0,1,0,1.913-.606Z" transform="translate(-74.652 -74.667)" fill="#1b1464"/>
      </g>
    </g>
    <g id="Group_642" data-name="Group 642" transform="translate(0 100.739)">
      <g id="Group_641" data-name="Group 641">
        <path id="Path_6757" data-name="Path 6757" d="M9.025,354a.988.988,0,0,0-.955.764l-6.065-1.516V353A1,1,0,1,0,0,353v4.011a3.012,3.012,0,0,0,3.008,3.008H7.019a3.012,3.012,0,0,0,3.008-3.008v-2.006A1,1,0,0,0,9.025,354Z" transform="translate(0 -351.999)" fill="#1b1464"/>
      </g>
    </g>
    <g id="Group_644" data-name="Group 644" transform="translate(38.105 100.739)">
      <g id="Group_643" data-name="Group 643">
        <path id="Path_6758" data-name="Path 6758" d="M414.357,352a1,1,0,0,0-1,1v.251l-6.065,1.516a.988.988,0,0,0-.955-.764,1,1,0,0,0-1,1v2.005a3.012,3.012,0,0,0,3.008,3.008h4.011a3.012,3.012,0,0,0,3.008-3.008V353A1,1,0,0,0,414.357,352Z" transform="translate(-405.332 -352)" fill="#1b1464"/>
      </g>
    </g>
    <g id="Group_646" data-name="Group 646" transform="translate(38.105 82.689)">
      <g id="Group_645" data-name="Group 645" transform="translate(0 0)">
        <path id="Path_6759" data-name="Path 6759" d="M410.347,160h-4.011a1,1,0,0,0,0,2.006h4.011a1,1,0,0,0,0-2.006Z" transform="translate(-405.333 -160)" fill="#1b1464"/>
      </g>
    </g>
    <g id="Group_648" data-name="Group 648" transform="translate(36.1 92.149)">
      <g id="Group_647" data-name="Group 647">
        <path id="Path_6760" data-name="Path 6760" d="M395.954,260.629l-2.736.548c-.337.052-7.072,1.023-8.778,1.023a5.441,5.441,0,0,0-.439,2.687c6.113-.289,10.872-.672,10.948-.678l1.081-.146C396.028,262.733,396.008,261.6,395.954,260.629Z" transform="translate(-383.999 -260.629)" fill="#1b1464"/>
      </g>
    </g>
    <g id="Group_650" data-name="Group 650" transform="translate(0.267 82.689)">
      <g id="Group_649" data-name="Group 649" transform="translate(0 0)">
        <path id="Path_6761" data-name="Path 6761" d="M48.98,165.052c-.449-.13-.684-.457-1.129-1.123l-.343-.5c-.6-.836-1.759-.872-2.88-.9a7.774,7.774,0,0,1-1.123-.084.979.979,0,0,0-.343-.309C41.291,161.1,34.2,160,26.637,160s-14.654,1.1-16.526,2.13a.989.989,0,0,0-.345.311,7.781,7.781,0,0,1-1.123.084c-1.119.032-2.278.066-2.878.9l-.343.5c-.445.666-.68.993-1.129,1.123-.786.231-1.217,1.037-1.456,2.5l1.981.5c.032,0,6.574.973,8.782.973a2.567,2.567,0,0,1,1.931.834,5.965,5.965,0,0,1,1.087,3.947c3.227.134,6.71.233,10.018.233s6.8-.1,10.028-.233c-.022-.886.028-3.107,1.021-4.156a1.929,1.929,0,0,1,1.426-.626c1.3,0,6.534-.716,8.441-.993l2.87-.576C50.182,166.051,49.751,165.277,48.98,165.052Zm-15.324,6.981H19.617a1,1,0,1,1,0-2.006H33.656a1,1,0,0,1,0,2.006Z" transform="translate(-2.837 -160)" fill="#1b1464"/>
      </g>
    </g>
    <g id="Group_652" data-name="Group 652" transform="translate(0.052 97.612)">
      <g id="Group_651" data-name="Group 651" transform="translate(0 0)">
        <path id="Path_6762" data-name="Path 6762" d="M47.764,318.852c-.174.014-12.583,1.011-23.2,1.011s-23.022-1-23.144-1l-.87-.09c.108,2.176.443,5.439,1.482,5.993,1.083.576,13.612,1.119,22.532,1.119s21.449-.543,22.53-1.121c1.043-.555,1.378-3.841,1.484-6.017Z" transform="translate(-0.554 -318.742)" fill="#1b1464"/>
      </g>
    </g>
    <g id="Group_654" data-name="Group 654" transform="translate(0 92.262)">
      <g id="Group_653" data-name="Group 653" transform="translate(0 0)">
        <path id="Path_6763" data-name="Path 6763" d="M11.488,263.471a.56.56,0,0,0-.457-.188c-2.367,0-8.9-.973-9.173-1.013L.07,261.825c-.05.951-.068,2.064-.07,3.353l1.105.114c.064.006,4.821.387,10.934.678A4.222,4.222,0,0,0,11.488,263.471Z" transform="translate(0 -261.825)" fill="#1b1464"/>
      </g>
    </g>
  </g>
</svg>
