<svg xmlns="http://www.w3.org/2000/svg" width="38.193" height="40.107" viewBox="0 0 38.193 40.107">
  <g id="Group_636" data-name="Group 636" transform="translate(-14.605 -0.001)">
    <path id="Path_6754" data-name="Path 6754" d="M49.718,18.469a16.49,16.49,0,0,0-3.209,4.819,2.453,2.453,0,0,1-4.549-.006,18.027,18.027,0,0,0-3.8-5.465c-.35-.387-.7-.775-1.045-1.174l-.049.018a2.9,2.9,0,0,0-1.783,3.688c.43,1.008,3.449.818,3.191,2.988-.215,1.777,2.108,2.244,2.932,2.158s2.09,1.352,1.451,1.992-1.832.664-1.647,2.311c.049.479,1.5.418,1.5,1.143s-.75,1.561-.172,2.4a1.957,1.957,0,0,0,.387.436A15.566,15.566,0,0,1,18.588,15.107a9.105,9.105,0,0,0,2.188,5.821c2.287,2.281,5.6,1.561,6.024,3.473s-2.275,1.912-2.1,3.369,3.707,1.85,2.92,3.2c-1.039,1.789.7,1.918.2,4.125-.27,1.2,1.469,1.438,2.115.523.492-.7.393-1.561,1.383-2.613,1.211-1.291,4.02-1.5,3.707-3.633-.535-3.541-3.977-4.094-5.477-4.924-1.7-.934-1.285-3.178-1.654-4.248-.516-1.518-2.268.424-3.2-.461-1.537-1.451.277-3.5,1.568-3.461,2.723.086,3.559,2.736,4.561,2.643.977-.086,1.611-1.451,1.783-2.176.363-1.58-.615-.873-1.008-1.7-.529-1.1,1.856-2.152,2.779-2.963a1.239,1.239,0,0,0,.3-.35c.277-.541-.086-.953-.7-1.328C32.746,9.66,30.5,9.07,30.4,7.908c-.062-.713,1.3-1.057,2.858-1.119.258.012.51.037.768.061a10.388,10.388,0,0,1,.621-2.139,17.284,17.284,0,0,0-2.268-.148A17.772,17.772,0,1,0,50.149,22.336,17.418,17.418,0,0,0,49.718,18.469ZM43.4.04a8.746,8.746,0,0,0-7.577,10.3c.889,5.041,5.537,6.593,7.844,12.251a.611.611,0,0,0,1.134,0c2.557-6.276,7.994-7.5,7.994-14.031A8.562,8.562,0,0,0,43.4.04Zm.834,13.041a4.52,4.52,0,1,1,4.52-4.52A4.52,4.52,0,0,1,44.238,13.081Z" transform="translate(0 0)" fill="#1b1464"/>
  </g>
</svg>
