<svg xmlns="http://www.w3.org/2000/svg" width="47.663" height="40.431" viewBox="0 0 47.663 40.431">
  <g id="Group_669" data-name="Group 669" transform="translate(0 -38.84)">
    <g id="Group_658" data-name="Group 658" transform="translate(37.096 60.668)">
      <g id="Group_657" data-name="Group 657">
        <path id="Path_6767" data-name="Path 6767" d="M402.18,273.32h-3.686a9.588,9.588,0,0,1,.581,3.3v13.931a4.108,4.108,0,0,1-.237,1.376h6.094a4.133,4.133,0,0,0,4.128-4.128V280.2A6.888,6.888,0,0,0,402.18,273.32Z" transform="translate(-398.494 -273.32)" fill="#1b1464"/>
      </g>
    </g>
    <g id="Group_660" data-name="Group 660" transform="translate(0 60.668)">
      <g id="Group_659" data-name="Group 659" transform="translate(0 0)">
        <path id="Path_6768" data-name="Path 6768" d="M9.985,276.617a9.588,9.588,0,0,1,.581-3.3H6.88A6.888,6.888,0,0,0,0,280.2V287.8a4.133,4.133,0,0,0,4.128,4.128h6.094a4.109,4.109,0,0,1-.237-1.376Z" transform="translate(0 -273.321)" fill="#1b1464"/>
      </g>
    </g>
    <g id="Group_662" data-name="Group 662" transform="translate(12.738 57.084)">
      <g id="Group_661" data-name="Group 661" transform="translate(0 0)">
        <path id="Path_6769" data-name="Path 6769" d="M152.136,234.815h-8.427a6.888,6.888,0,0,0-6.88,6.88v13.931A1.376,1.376,0,0,0,138.205,257h19.435a1.376,1.376,0,0,0,1.376-1.376V241.7A6.888,6.888,0,0,0,152.136,234.815Z" transform="translate(-136.829 -234.815)" fill="#1b1464"/>
      </g>
    </g>
    <g id="Group_664" data-name="Group 664" transform="translate(15.557 38.84)">
      <g id="Group_663" data-name="Group 663" transform="translate(0 0)">
        <path id="Path_6770" data-name="Path 6770" d="M175.389,38.84a8.273,8.273,0,1,0,8.275,8.275A8.284,8.284,0,0,0,175.389,38.84Z" transform="translate(-167.114 -38.84)" fill="#1b1464"/>
      </g>
    </g>
    <g id="Group_666" data-name="Group 666" transform="translate(3.113 46.553)">
      <g id="Group_665" data-name="Group 665" transform="translate(0 0)">
        <path id="Path_6771" data-name="Path 6771" d="M39.631,121.689a6.185,6.185,0,1,0,6.188,6.188A6.2,6.2,0,0,0,39.631,121.689Z" transform="translate(-33.443 -121.689)" fill="#1b1464"/>
      </g>
    </g>
    <g id="Group_668" data-name="Group 668" transform="translate(32.173 46.553)">
      <g id="Group_667" data-name="Group 667" transform="translate(0 0)">
        <path id="Path_6772" data-name="Path 6772" d="M351.8,121.689a6.188,6.188,0,1,0,6.188,6.188A6.2,6.2,0,0,0,351.8,121.689Z" transform="translate(-345.607 -121.689)" fill="#1b1464"/>
      </g>
    </g>
  </g>
</svg>
