<svg id="Group_635" data-name="Group 635" xmlns="http://www.w3.org/2000/svg" width="40.102" height="40.102" viewBox="0 0 40.102 40.102">
  <path id="Path_6750" data-name="Path 6750" d="M226,390h4.7v9.555H226Z" transform="translate(-208.299 -359.454)" fill="#1b1464"/>
  <path id="Path_6751" data-name="Path 6751" d="M121.023,40.1H126.9V28.2h9.4V40.1h5.9V0H121.023ZM137.469,4.7h2.35v2.35h-2.35Zm0,4.7h2.35v2.35h-2.35Zm0,4.7h2.35v2.35h-2.35Zm0,4.7h2.35v2.35h-2.35Zm0,4.7h2.35v2.35h-2.35Zm-4.7-18.8h2.35v2.35h-2.35Zm0,4.7h2.35v2.35h-2.35Zm0,4.7h2.35v2.35h-2.35Zm0,4.7h2.35v2.35h-2.35Zm0,4.7h2.35v2.35h-2.35Zm-4.7-18.8h2.35v2.35h-2.35Zm0,4.7h2.35v2.35h-2.35Zm0,4.7h2.35v2.35h-2.35Zm0,4.7h2.35v2.35h-2.35Zm0,4.7h2.35v2.35h-2.35Zm-4.7-18.8h2.35v2.35h-2.35Zm0,4.7h2.35v2.35h-2.35Zm0,4.7h2.35v2.35h-2.35Zm0,4.7h2.35v2.35h-2.35Zm0,4.7h2.35v2.35h-2.35Z" transform="translate(-111.544)" fill="#1b1464"/>
  <path id="Path_6752" data-name="Path 6752" d="M420.637,120h7.156v30.7h-7.156Z" transform="translate(-387.691 -110.601)" fill="#1b1464"/>
  <path id="Path_6753" data-name="Path 6753" d="M0,120H7.127v30.7H0Z" transform="translate(0 -110.601)" fill="#1b1464"/>
</svg>
