<svg id="Group_670" data-name="Group 670" xmlns="http://www.w3.org/2000/svg" width="40.121" height="40.121" viewBox="0 0 40.121 40.121">
  <path id="Path_6773" data-name="Path 6773" d="M19.848,16.6h.017l8.191-2.792a1.978,1.978,0,0,0,.033-.435,1.155,1.155,0,0,0-.067-.418,2.62,2.62,0,0,0-.736-1.1V8.191c0-2.708-.97-3.778-1.973-4.4C24.8,2.223,22.64,0,18.41,0,13.4,0,9.617,4.965,9.617,8.191c0,1.337-.05,2.391-.1,3.193,0,.167-.017.318-.017.451a2.589,2.589,0,0,0-.736,1.22,1.854,1.854,0,0,0-.033.318,11.055,11.055,0,0,0,.836,3.41,1.151,1.151,0,0,0,.6.652,1.471,1.471,0,0,1,.033.368c0,1.772,1.521,3.444,2.357,4.246-.084,1.839-.6,3.109-1.337,3.427L4.669,27.65A5.694,5.694,0,0,0,.941,31.679L.055,35.223a1.293,1.293,0,0,0,.234,1.07,1.26,1.26,0,0,0,.986.485h18.74a17.5,17.5,0,0,1-1.4-2.09,14.227,14.227,0,0,1-1.872-7.021v-6.7A4.628,4.628,0,0,1,19.848,16.6Z" transform="translate(-0.022)" fill="#1b1464"/>
  <path id="Path_6774" data-name="Path 6774" d="M39.27,19.77l-8.776-2.986a1.232,1.232,0,0,0-.806,0L20.911,19.77a1.25,1.25,0,0,0-.851,1.187v6.717c0,8.2,9.151,12.183,9.54,12.349a1.26,1.26,0,0,0,.98,0c.389-.167,9.54-4.151,9.54-12.349V20.957a1.25,1.25,0,0,0-.851-1.187Zm-3.686,6.339-4.6,5.851a1.673,1.673,0,0,1-2.4.237L25.659,29.69a1.671,1.671,0,0,1,2.175-2.538l1.6,1.372,3.519-4.479a1.671,1.671,0,0,1,2.63,2.063ZM0,0" fill="#1b1464"/>
</svg>
